<svg class="icon-child_care" viewBox="0 0 28 28">
<path fill="currentColor" d="M8.75 16.352h10.5q-0.656 1.586-2.078 2.543t-3.172 0.957-3.172-0.957-2.078-2.543zM14 22.148q2.789 0 4.949-1.641t2.871-4.211q0.055 0 0.164 0.027t0.164 0.027q0.93 0 1.641-0.711t0.711-1.641-0.711-1.641-1.641-0.711q-0.055 0-0.164 0.027t-0.164 0.027q-0.711-2.57-2.871-4.211t-4.949-1.641-4.949 1.641-2.871 4.211q-0.055 0-0.164-0.027t-0.164-0.027q-0.93 0-1.641 0.711t-0.711 1.641 0.711 1.641 1.641 0.711q0.055 0 0.164-0.027t0.164-0.027q0.711 2.57 2.871 4.211t4.949 1.641zM26.742 14.766q-0.219 1.203-1.148 2.297t-2.078 1.422q-1.203 2.57-3.801 4.293t-5.715 1.723q-3.883 0-6.945-2.68-1.695-1.477-2.516-3.336-1.148-0.328-2.105-1.422t-1.176-2.297q-0.109-0.438-0.109-0.766t0.109-0.766q0.219-1.203 1.176-2.297t2.105-1.422q0.93-2.078 2.516-3.391 2.953-2.625 6.945-2.625t6.945 2.625q1.695 1.586 2.516 3.391 1.148 0.328 2.105 1.422t1.176 2.297q0.109 0.438 0.109 0.766t-0.109 0.766zM9.625 12.25q0-0.602 0.438-1.039t1.039-0.438 1.012 0.438 0.41 1.039-0.41 1.039-1.012 0.438-1.039-0.438-0.438-1.039zM15.477 12.25q0-0.602 0.41-1.039t1.012-0.438 1.039 0.438 0.438 1.039-0.438 1.039-1.039 0.438-1.012-0.438-0.41-1.039z"></path>
</svg>