<svg class="icon-search" viewBox="0 0 32 32">
<path fill="currentColor" d="M18.757 0c-7.188 0-13.046 5.858-13.046 13.046 0 2.905 0.935 5.514 2.56 7.68l-7.582 7.385c-0.886 0.886-0.935 2.314-0.049 3.2 0.443 0.443 1.034 0.689 1.625 0.689s1.132-0.197 1.575-0.64l7.68-7.434c2.068 1.378 4.578 2.215 7.237 2.215 7.188 0 13.046-5.858 13.046-13.046s-5.809-13.095-13.046-13.095zM18.757 21.563c-4.677 0-8.517-3.791-8.517-8.517s3.84-8.517 8.517-8.517 8.517 3.84 8.517 8.517-3.791 8.517-8.517 8.517z"></path>
</svg>